<?xml version="1.0" encoding="utf-8"?>
<!DOCTYPE svg PUBLIC "-//W3C//DTD SVG 1.1 Basic//EN" "http://www.w3.org/Graphics/SVG/1.1/DTD/svg11-basic.dtd">
<svg version="1.1" baseProfile="basic" id="Fullscreen_Toggle"
	 xmlns="http://www.w3.org/2000/svg" xmlns:xlink="http://www.w3.org/1999/xlink" x="0px" y="0px" width="18px" height="18px"
	 viewBox="0 0 18 18" xml:space="preserve">
<g>
	<g>
		<path fill="#FFFDFD" d="M16,10l-2.219-2.469l-2.489,2.488l-1.781-0.78L8.75,7.521l2.488-2.489L8.75,2.75H16V10z M2,16.75h7.271
			L6.75,14.5l2.5-2.5L8.5,10.25L6.75,9.5L4.25,12L2,9.5V16.75z"/>
	</g>
	<g>
		<linearGradient id="SVGID_1_" gradientUnits="userSpaceOnUse" x1="9.0005" y1="16" x2="9.0005" y2="2.0005">
			<stop  offset="0" style="stop-color:#7A7B7B"/>
			<stop  offset="1" style="stop-color:#404040"/>
		</linearGradient>
		<path fill="url(#SVGID_1_)" d="M16,9.25l-2.219-2.469L11.292,9.27L9.511,8.489L8.75,6.771l2.488-2.489L8.75,2H16V9.25z M2,16
			h7.271L6.75,13.75l2.5-2.5L8.5,9.5L6.75,8.75l-2.5,2.5L2,8.75V16z"/>
	</g>
</g>
</svg>
