<?xml version="1.0" encoding="utf-8"?>
<!DOCTYPE svg PUBLIC "-//W3C//DTD SVG 1.1 Basic//EN" "http://www.w3.org/Graphics/SVG/1.1/DTD/svg11-basic.dtd">
<svg version="1.1" baseProfile="basic" id="Fullscreen_Toggle"
	 xmlns="http://www.w3.org/2000/svg" xmlns:xlink="http://www.w3.org/1999/xlink" x="0px" y="0px" width="18px" height="18px"
	 viewBox="0 0 18 18" xml:space="preserve">
<g>
	<path fill="#58595B" d="M16,9.25l-2.219-2.469L11.292,9.27L9.511,8.489L8.75,6.771l2.488-2.489L8.75,2H16V9.25z M2,16h7.271
		L6.75,13.75l2.5-2.5L8.5,9.5L6.75,8.75l-2.5,2.5L2,8.75V16z"/>
	<g opacity="0.25">
		<path fill="#231F20" d="M15.75,2.25v6.348l-1.783-1.983l-0.176-0.196l-0.187,0.187l-2.368,2.368L9.7,8.299L9.048,6.827
			l2.367-2.368L11.6,4.274l-0.192-0.176L9.393,2.25H15.75 M6.807,9.046L8.31,9.69l0.644,1.503l-2.38,2.38l-0.187,0.188l0.197,0.176
			l2.032,1.813H2.25V9.401l1.814,2.016l0.176,0.196l0.187-0.187L6.807,9.046 M16,2H8.75l2.488,2.282L8.75,6.771l0.761,1.718
			l1.781,0.781l2.489-2.489L16,9.25V2L16,2z M6.75,8.75l-2.5,2.5L2,8.75V16h7.271L6.75,13.75l2.5-2.5L8.5,9.5L6.75,8.75L6.75,8.75z"
			/>
	</g>
</g>
</svg>
