<?xml version="1.0" encoding="utf-8"?>
<!DOCTYPE svg PUBLIC "-//W3C//DTD SVG 1.1 Basic//EN" "http://www.w3.org/Graphics/SVG/1.1/DTD/svg11-basic.dtd">
<svg version="1.1" baseProfile="basic" id="Fullscreen_Toggle"
	 xmlns="http://www.w3.org/2000/svg" xmlns:xlink="http://www.w3.org/1999/xlink" x="0px" y="0px" width="18px" height="18px"
	 viewBox="0 0 18 18" xml:space="preserve">
<g>
	<g>
		<path fill="#FFFDFD" d="M16,1.75H2c-0.552,0-1,0.448-1,1v14c0,0.553,0.448,1,1,1h14c0.553,0,1-0.447,1-1v-14
			C17,2.198,16.553,1.75,16,1.75z M8,16.744L6,14.75l-2,2l-1.5-0.5L2,14.75l2-2l-2-2h6V16.744z M10,8.75v-6l2,2l2-2l1.502,0.502
			l0.502,1.498L14,6.75l2.021,2H10z"/>
	</g>
	<g>
		<linearGradient id="SVGID_1_" gradientUnits="userSpaceOnUse" x1="9.0005" y1="17" x2="9.0005" y2="1.0005">
			<stop  offset="0" style="stop-color:#7A7B7B"/>
			<stop  offset="1" style="stop-color:#404040"/>
		</linearGradient>
		<path fill="url(#SVGID_1_)" d="M16,1H2C1.448,1,1,1.448,1,2v14c0,0.553,0.448,1,1,1h14c0.553,0,1-0.447,1-1V2
			C17,1.448,16.553,1,16,1z M8,15.994L6,14l-2,2l-1.5-0.5L2,14l2-2l-2-2h6V15.994z M10,8V2l2,2l2-2l1.502,0.502L16.004,4L14,6
			l2.021,2H10z"/>
	</g>
</g>
</svg>
