<?xml version="1.0" encoding="utf-8"?>
<!DOCTYPE svg PUBLIC "-//W3C//DTD SVG 1.1 Basic//EN" "http://www.w3.org/Graphics/SVG/1.1/DTD/svg11-basic.dtd">
<svg version="1.1" baseProfile="basic" id="Layer_1"
	 xmlns="http://www.w3.org/2000/svg" xmlns:xlink="http://www.w3.org/1999/xlink" x="0px" y="0px" width="256px" height="128px"
	 viewBox="0 0 256 128" xml:space="preserve">
<g id="triangle" opacity="0.2">
	<g>
		<path fill="#FFFFFF" d="M128.016,18l58.477,96H69.504L128.016,18 M128.017,10c-2.791,0-5.38,1.454-6.832,3.836l-58.512,96
			c-1.505,2.469-1.561,5.559-0.144,8.08c1.416,2.522,4.083,4.083,6.975,4.083h116.988c2.892,0,5.559-1.561,6.975-4.082
			c1.416-2.521,1.362-5.61-0.143-8.08l-58.477-96C133.396,11.455,130.808,10,128.017,10L128.017,10z"/>
	</g>
	<g>
		<path fill="#6D6E70" d="M128.016,16l58.477,96H69.504L128.016,16 M128.017,8c-2.791,0-5.38,1.454-6.832,3.836l-58.512,96
			c-1.505,2.469-1.561,5.559-0.144,8.08c1.416,2.522,4.083,4.083,6.975,4.083h116.988c2.892,0,5.559-1.561,6.975-4.082
			c1.416-2.521,1.362-5.61-0.143-8.08l-58.477-96C133.396,9.455,130.808,8,128.017,8L128.017,8z"/>
	</g>
</g>
<g id="_x21_" opacity="0.2">
	<g>
		<path fill="#FFFFFF" d="M136.008,98c0,4.422-3.586,8.008-8.008,8.008
			s-8.008-3.586-8.008-8.008s3.586-8.008,8.008-8.008S136.008,93.578,136.008,98z M136.016,42h-16.031l2.008,40h12.023L136.016,42z"
			/>
	</g>
	<g>
		<path fill="#6D6E70" d="M136.008,96c0,4.422-3.586,8.008-8.008,8.008
			s-8.008-3.586-8.008-8.008s3.586-8.008,8.008-8.008S136.008,91.578,136.008,96z M136.016,40h-16.031l2.008,40h12.023L136.016,40z"
			/>
	</g>
</g>
</svg>
