<?xml version="1.0" encoding="utf-8"?>
<!DOCTYPE svg PUBLIC "-//W3C//DTD SVG 1.1 Basic//EN" "http://www.w3.org/Graphics/SVG/1.1/DTD/svg11-basic.dtd">
<svg version="1.1" baseProfile="basic" id="Button_Icons"
	 xmlns="http://www.w3.org/2000/svg" xmlns:xlink="http://www.w3.org/1999/xlink" x="0px" y="0px" width="24px" height="15px"
	 viewBox="0 0 24 15" xml:space="preserve">
<g>
	<g>
		<path fill-rule="evenodd" clip-rule="evenodd" fill="#FFFDFD" d="M17.75,7.75l-1.432-0.205c-0.099-0.352-0.237-0.684-0.413-0.995
			l0.868-1.158c0.098-0.098,0.098-0.259,0-0.354l-1.061-1.061c-0.098-0.098-0.256-0.098-0.354,0l-1.158,0.868
			c-0.312-0.176-0.644-0.315-0.996-0.414L13,3c0-0.138-0.111-0.25-0.25-0.25h-1.5C11.112,2.75,11,2.862,11,3l-0.205,1.433
			C10.443,4.531,10.112,4.67,9.8,4.846L8.641,3.977c-0.098-0.098-0.256-0.098-0.354,0L7.227,5.038c-0.098,0.098-0.098,0.256,0,0.354
			L8.096,6.55C7.92,6.862,7.781,7.193,7.683,7.545L6.25,7.75C6.112,7.75,6,7.862,6,8v1.501c0,0.137,0.112,0.249,0.25,0.25
			l1.434,0.205c0.098,0.352,0.237,0.683,0.413,0.994l-0.869,1.158c-0.098,0.098-0.098,0.256,0,0.354l1.061,1.062
			c0.097,0.098,0.256,0.098,0.354,0l1.159-0.87c0.312,0.177,0.643,0.315,0.995,0.414L11,14.5c0,0.138,0.114,0.25,0.25,0.25h1.5
			c0.139,0,0.25-0.112,0.25-0.25l0.205-1.433c0.352-0.099,0.684-0.237,0.995-0.414l1.159,0.87c0.098,0.098,0.258,0.097,0.354,0
			l1.061-1.062c0.098-0.098,0.098-0.256,0-0.354l-0.869-1.158c0.176-0.312,0.314-0.643,0.413-0.994l1.433-0.205
			c0.139,0,0.252-0.114,0.25-0.25V8C18,7.863,17.889,7.75,17.75,7.75z M12,10.75c-1.104,0-2-0.896-2-2c0-1.105,0.896-2,2-2
			c1.105,0,2.001,0.896,2.001,2C14.001,9.854,13.105,10.75,12,10.75z"/>
	</g>
	<g>
		<linearGradient id="SVGID_1_" gradientUnits="userSpaceOnUse" x1="12.0005" y1="14" x2="12.0005" y2="2.0005">
			<stop  offset="0" style="stop-color:#7A7B7B"/>
			<stop  offset="1" style="stop-color:#404040"/>
		</linearGradient>
		<path fill-rule="evenodd" clip-rule="evenodd" fill="url(#SVGID_1_)" d="M17.75,7l-1.432-0.205
			c-0.099-0.352-0.237-0.684-0.413-0.995l0.868-1.158c0.098-0.098,0.098-0.259,0-0.354l-1.061-1.061
			c-0.098-0.098-0.256-0.098-0.354,0l-1.158,0.868c-0.312-0.176-0.644-0.315-0.996-0.414L13,2.25C13,2.112,12.889,2,12.75,2h-1.5
			C11.112,2,11,2.112,11,2.25l-0.205,1.433C10.443,3.781,10.112,3.92,9.8,4.096L8.641,3.227c-0.098-0.098-0.256-0.098-0.354,0
			L7.227,4.288c-0.098,0.098-0.098,0.256,0,0.354L8.096,5.8C7.92,6.112,7.781,6.443,7.683,6.795L6.25,7C6.112,7,6,7.112,6,7.25
			v1.501C6,8.888,6.112,9,6.25,9.001l1.434,0.205C7.782,9.558,7.92,9.889,8.097,10.2l-0.869,1.158c-0.098,0.098-0.098,0.256,0,0.354
			l1.061,1.062c0.097,0.098,0.256,0.098,0.354,0l1.159-0.87c0.312,0.177,0.643,0.315,0.995,0.414L11,13.75
			c0,0.138,0.114,0.25,0.25,0.25h1.5c0.139,0,0.25-0.112,0.25-0.25l0.205-1.433c0.352-0.099,0.684-0.237,0.995-0.414l1.159,0.87
			c0.098,0.098,0.258,0.097,0.354,0l1.061-1.062c0.098-0.098,0.098-0.256,0-0.354L15.904,10.2c0.176-0.312,0.314-0.643,0.413-0.994
			l1.433-0.205c0.139,0,0.252-0.114,0.25-0.25v-1.5C18,7.113,17.889,7,17.75,7z M12,10c-1.104,0-2-0.896-2-2c0-1.105,0.896-2,2-2
			c1.105,0,2.001,0.896,2.001,2C14.001,9.104,13.105,10,12,10z"/>
	</g>
</g>
</svg>
