<?xml version="1.0" encoding="utf-8"?>
<!DOCTYPE svg PUBLIC "-//W3C//DTD SVG 1.1 Basic//EN" "http://www.w3.org/Graphics/SVG/1.1/DTD/svg11-basic.dtd">
<svg version="1.1" baseProfile="basic" id="Button_Icons"
	 xmlns="http://www.w3.org/2000/svg" xmlns:xlink="http://www.w3.org/1999/xlink" x="0px" y="0px" width="24px" height="15px"
	 viewBox="0 0 24 15" xml:space="preserve">
<g>
	<g>
		<path fill-rule="evenodd" clip-rule="evenodd" fill="#FFFDFD" d="M13.75,7.75l-1.432-0.205c-0.099-0.352-0.237-0.684-0.413-0.995
			l0.868-1.158c0.098-0.098,0.098-0.259,0-0.354l-1.061-1.061c-0.098-0.098-0.255-0.098-0.354,0l-1.158,0.868
			C9.89,4.67,9.558,4.531,9.206,4.433L9,3c0-0.138-0.112-0.25-0.25-0.25h-1.5C7.112,2.75,7,2.862,7,3L6.795,4.433
			C6.443,4.531,6.112,4.67,5.8,4.846L4.641,3.977c-0.098-0.098-0.256-0.098-0.354,0L3.227,5.038c-0.098,0.098-0.098,0.256,0,0.354
			L4.096,6.55C3.92,6.862,3.781,7.193,3.683,7.545L2.25,7.75C2.112,7.75,2,7.862,2,8v1.501c0,0.137,0.112,0.249,0.25,0.25
			l1.434,0.205c0.098,0.352,0.237,0.683,0.413,0.994l-0.869,1.158c-0.098,0.098-0.098,0.256,0,0.354l1.061,1.062
			c0.097,0.098,0.256,0.098,0.354,0l1.159-0.87c0.312,0.177,0.643,0.315,0.995,0.414L7,14.5c0,0.138,0.114,0.25,0.25,0.25h1.5
			C8.888,14.75,9,14.638,9,14.5l0.205-1.433c0.352-0.099,0.683-0.237,0.995-0.414l1.159,0.87c0.098,0.098,0.258,0.097,0.354,0
			l1.061-1.062c0.098-0.098,0.098-0.256,0-0.354l-0.869-1.158c0.176-0.312,0.314-0.643,0.413-0.994l1.433-0.205
			c0.139,0,0.252-0.114,0.25-0.25V8C14,7.863,13.889,7.75,13.75,7.75z M8,10.75c-1.105,0-2-0.896-2-2c0-1.105,0.896-2,2-2
			s2,0.896,2,2C10.001,9.854,9.105,10.75,8,10.75z M24,6.751l-3.506,5l-3.494-5H24z"/>
	</g>
	<g>
		<linearGradient id="SVGID_1_" gradientUnits="userSpaceOnUse" x1="13" y1="14" x2="13" y2="2.0005">
			<stop  offset="0" style="stop-color:#7A7B7B"/>
			<stop  offset="1" style="stop-color:#404040"/>
		</linearGradient>
		<path fill-rule="evenodd" clip-rule="evenodd" fill="url(#SVGID_1_)" d="M13.75,7l-1.432-0.205
			c-0.099-0.352-0.237-0.684-0.413-0.995l0.868-1.158c0.098-0.098,0.098-0.259,0-0.354l-1.061-1.061
			c-0.098-0.098-0.255-0.098-0.354,0l-1.158,0.868C9.89,3.92,9.558,3.781,9.206,3.683L9,2.25C9,2.112,8.888,2,8.75,2h-1.5
			C7.112,2,7,2.112,7,2.25L6.795,3.683C6.443,3.781,6.112,3.92,5.8,4.096L4.641,3.227c-0.098-0.098-0.256-0.098-0.354,0L3.227,4.288
			c-0.098,0.098-0.098,0.256,0,0.354L4.096,5.8C3.92,6.112,3.781,6.443,3.683,6.795L2.25,7C2.112,7,2,7.112,2,7.25v1.501
			C2,8.888,2.112,9,2.25,9.001l1.434,0.205C3.782,9.558,3.92,9.889,4.097,10.2l-0.869,1.158c-0.098,0.098-0.098,0.256,0,0.354
			l1.061,1.062c0.097,0.098,0.256,0.098,0.354,0l1.159-0.87c0.312,0.177,0.643,0.315,0.995,0.414L7,13.75C7,13.888,7.114,14,7.25,14
			h1.5C8.888,14,9,13.888,9,13.75l0.205-1.433c0.352-0.099,0.683-0.237,0.995-0.414l1.159,0.87c0.098,0.098,0.258,0.097,0.354,0
			l1.061-1.062c0.098-0.098,0.098-0.256,0-0.354L11.904,10.2c0.176-0.312,0.314-0.643,0.413-0.994l1.433-0.205
			c0.139,0,0.252-0.114,0.25-0.25v-1.5C14,7.113,13.889,7,13.75,7z M8,10c-1.105,0-2-0.896-2-2c0-1.105,0.896-2,2-2s2,0.896,2,2
			C10.001,9.104,9.105,10,8,10z M24,6.001l-3.506,5l-3.494-5H24z"/>
	</g>
</g>
</svg>
