<?xml version="1.0" encoding="utf-8"?>
<!DOCTYPE svg PUBLIC "-//W3C//DTD SVG 1.1 Basic//EN" "http://www.w3.org/Graphics/SVG/1.1/DTD/svg11-basic.dtd">
<svg version="1.1" baseProfile="basic" id="Button_Icons"
	 xmlns="http://www.w3.org/2000/svg" xmlns:xlink="http://www.w3.org/1999/xlink" x="0px" y="0px" width="24px" height="15px"
	 viewBox="0 0 24 15" xml:space="preserve">
<g>
	<g>
		<path fill="#FFFFFF" d="M12,1.75c-3.59,0-6.5,2.91-6.5,6.5c0,3.59,2.91,6.5,6.5,6.5s6.5-2.91,6.5-6.5
			C18.5,4.66,15.59,1.75,12,1.75z M16,10.5l-1.75,1.75L12,10.018L9.75,12.25L8,10.5l2.232-2.25L8,6l1.75-1.75L12,6.482l2.25-2.232
			L16,6l-2.232,2.25L16,10.5z"/>
	</g>
	<g>
		<linearGradient id="SVGID_1_" gradientUnits="userSpaceOnUse" x1="12.0005" y1="14" x2="12.0005" y2="1.0005">
			<stop  offset="0" style="stop-color:#7A7B7B"/>
			<stop  offset="1" style="stop-color:#404040"/>
		</linearGradient>
		<path fill="url(#SVGID_1_)" d="M12,1C8.41,1,5.5,3.91,5.5,7.5c0,3.59,2.91,6.5,6.5,6.5s6.5-2.91,6.5-6.5
			C18.5,3.91,15.59,1,12,1z M16,9.75l-1.75,1.75L12,9.268L9.75,11.5L8,9.75l2.232-2.25L8,5.25L9.75,3.5L12,5.732L14.25,3.5L16,5.25
			L13.768,7.5L16,9.75z"/>
	</g>
</g>
</svg>
