<?xml version="1.0" encoding="utf-8"?>
<!DOCTYPE svg PUBLIC "-//W3C//DTD SVG 1.1 Basic//EN" "http://www.w3.org/Graphics/SVG/1.1/DTD/svg11-basic.dtd">
<svg version="1.1" baseProfile="basic" id="Button_Icons"
	 xmlns="http://www.w3.org/2000/svg" xmlns:xlink="http://www.w3.org/1999/xlink" x="0px" y="0px" width="24px" height="15px"
	 viewBox="0 0 24 15" xml:space="preserve">
<g>
	<g>
		<path fill="#FFFFFF" d="M7.9,3.665c-2.538,2.539-2.538,6.654,0,9.193
			c2.539,2.538,6.653,2.537,9.192-0.001c2.538-2.538,2.539-6.654,0.001-9.192C14.555,1.127,10.438,1.127,7.9,3.665z M9.49,5.255
			c1.382-1.382,3.47-1.596,5.091-0.679l-5.77,5.77C7.894,8.725,8.108,6.637,9.49,5.255z M15.504,11.269
			c-1.386,1.385-3.482,1.598-5.105,0.671l5.776-5.776C17.102,7.786,16.889,9.883,15.504,11.269z"/>
	</g>
	<g>
		<linearGradient id="SVGID_1_" gradientUnits="userSpaceOnUse" x1="12.4976" y1="14.0117" x2="12.4976" y2="1.0122">
			<stop  offset="0" style="stop-color:#7A7B7B"/>
			<stop  offset="1" style="stop-color:#404040"/>
		</linearGradient>
		<path fill="url(#SVGID_1_)" d="M7.9,2.915c-2.538,2.539-2.538,6.654,0,9.193
			c2.539,2.538,6.653,2.537,9.192-0.001c2.538-2.538,2.539-6.654,0.001-9.192C14.555,0.377,10.438,0.377,7.9,2.915z M9.49,4.505
			c1.382-1.382,3.47-1.596,5.091-0.679l-5.77,5.77C7.894,7.975,8.108,5.887,9.49,4.505z M15.504,10.519
			c-1.386,1.385-3.482,1.598-5.105,0.671l5.776-5.776C17.102,7.036,16.889,9.133,15.504,10.519z"/>
	</g>
</g>
</svg>
