<?xml version="1.0" encoding="utf-8"?>
<!DOCTYPE svg PUBLIC "-//W3C//DTD SVG 1.1 Basic//EN" "http://www.w3.org/Graphics/SVG/1.1/DTD/svg11-basic.dtd">
<svg version="1.1" baseProfile="basic" id="Button_Icons"
	 xmlns="http://www.w3.org/2000/svg" xmlns:xlink="http://www.w3.org/1999/xlink" x="0px" y="0px" width="24px" height="15px"
	 viewBox="0 0 24 15" xml:space="preserve">
<g id="Button_Icons_1_">
	<g>
		<path id="help_2_" fill="#FFFFFF" d="M18.5,8.25c0,3.59-2.91,6.5-6.5,6.5s-6.5-2.91-6.5-6.5c0-3.589,2.91-6.5,6.5-6.5
			S18.5,4.661,18.5,8.25z M8.542,6.49H10.6c0-0.252,0.028-0.488,0.084-0.707c0.057-0.219,0.143-0.411,0.26-0.574
			c0.116-0.163,0.266-0.294,0.447-0.392c0.182-0.098,0.398-0.147,0.651-0.147c0.373,0,0.665,0.103,0.875,0.308
			c0.21,0.206,0.315,0.523,0.315,0.952c0.008,0.252-0.035,0.462-0.134,0.63c-0.098,0.168-0.226,0.322-0.385,0.462
			c-0.159,0.14-0.331,0.28-0.519,0.42c-0.187,0.14-0.363,0.306-0.531,0.497c-0.168,0.192-0.315,0.422-0.441,0.694
			c-0.126,0.27-0.203,0.605-0.23,1.008v0.629h1.89V9.738c0.037-0.281,0.128-0.514,0.272-0.701c0.145-0.186,0.311-0.352,0.498-0.496
			c0.186-0.145,0.385-0.289,0.594-0.434c0.211-0.145,0.402-0.32,0.574-0.525c0.173-0.205,0.317-0.453,0.435-0.742
			c0.116-0.29,0.175-0.658,0.175-1.106c0-0.271-0.059-0.562-0.175-0.875c-0.117-0.312-0.311-0.604-0.581-0.875
			c-0.271-0.271-0.628-0.497-1.071-0.679s-0.996-0.273-1.659-0.273c-0.514,0-0.978,0.086-1.393,0.259
			c-0.416,0.173-0.77,0.413-1.064,0.721C9.193,4.32,8.964,4.684,8.801,5.104C8.637,5.524,8.551,5.986,8.542,6.49z M10.796,11.109
			v2.156h2.198v-2.156H10.796z"/>
	</g>
	<g>
		<linearGradient id="help_3_" gradientUnits="userSpaceOnUse" x1="12.0005" y1="14" x2="12.0005" y2="1.001">
			<stop  offset="0" style="stop-color:#7A7B7B"/>
			<stop  offset="1" style="stop-color:#404040"/>
		</linearGradient>
		<path id="help_1_" fill="url(#help_3_)" d="M18.5,7.5c0,3.589-2.91,6.5-6.5,6.5s-6.5-2.91-6.5-6.5C5.5,3.911,8.41,1,12,1
			S18.5,3.911,18.5,7.5z M8.542,5.74H10.6c0-0.252,0.028-0.488,0.084-0.707c0.057-0.219,0.143-0.411,0.26-0.574
			c0.116-0.163,0.266-0.294,0.447-0.392c0.182-0.098,0.398-0.147,0.651-0.147c0.373,0,0.665,0.103,0.875,0.308
			c0.21,0.206,0.315,0.523,0.315,0.952c0.008,0.252-0.035,0.462-0.134,0.63c-0.098,0.168-0.226,0.322-0.385,0.462
			c-0.159,0.14-0.331,0.28-0.519,0.42c-0.187,0.14-0.363,0.306-0.531,0.497c-0.168,0.191-0.315,0.423-0.441,0.694
			c-0.126,0.27-0.203,0.605-0.23,1.008V9.52h1.89V8.988c0.037-0.281,0.128-0.514,0.272-0.701c0.145-0.186,0.311-0.352,0.498-0.496
			c0.186-0.144,0.385-0.289,0.594-0.434c0.211-0.145,0.402-0.319,0.574-0.525c0.173-0.205,0.317-0.453,0.435-0.742
			c0.116-0.29,0.175-0.658,0.175-1.106c0-0.271-0.059-0.562-0.175-0.875c-0.117-0.312-0.311-0.604-0.581-0.875
			c-0.271-0.271-0.628-0.497-1.071-0.679s-0.996-0.273-1.659-0.273c-0.514,0-0.978,0.086-1.393,0.259
			c-0.416,0.173-0.77,0.413-1.064,0.721C9.193,3.57,8.964,3.934,8.801,4.354C8.637,4.774,8.551,5.236,8.542,5.74z M10.796,10.359
			v2.156h2.198v-2.156H10.796z"/>
	</g>
</g>
</svg>
