<?xml version="1.0" encoding="utf-8"?>
<!DOCTYPE svg PUBLIC "-//W3C//DTD SVG 1.1 Basic//EN" "http://www.w3.org/Graphics/SVG/1.1/DTD/svg11-basic.dtd">
<svg version="1.1" baseProfile="basic" id="Button_Icons"
	 xmlns="http://www.w3.org/2000/svg" xmlns:xlink="http://www.w3.org/1999/xlink" x="0px" y="0px" width="24px" height="15px"
	 viewBox="0 0 24 15" xml:space="preserve">
<g>
	<g>
		<path fill="#FFFFFF" d="M18.5,8.25c0,3.59-2.91,6.5-6.5,6.5s-6.5-2.91-6.5-6.5s2.91-6.5,6.5-6.5S18.5,4.66,18.5,8.25
			z M13,11.25h-2v2h2V11.25z M13,10.25c0-1.5,1.109-1.68,1.75-2.347c0.47-0.489,0.75-0.982,0.75-1.653c0-1.587-1.567-3-3.5-3
			c-1.933,0-3.5,1.663-3.5,3.25h2C10.5,5.75,11,5,12,5s1.5,0.5,1.5,1.25S12.125,7.625,11.75,8C11.375,8.375,11,9,11,10.25H13z"/>
	</g>
	<g>
		<linearGradient id="SVGID_1_" gradientUnits="userSpaceOnUse" x1="12.0005" y1="14" x2="12.0005" y2="1.0005">
			<stop  offset="0" style="stop-color:#7A7B7B"/>
			<stop  offset="1" style="stop-color:#404040"/>
		</linearGradient>
		<path fill="url(#SVGID_1_)" d="M18.5,7.5c0,3.59-2.91,6.5-6.5,6.5s-6.5-2.91-6.5-6.5S8.41,1,12,1S18.5,3.91,18.5,7.5z
			 M13,10.5h-2v2h2V10.5z M13,9.5c0-1.5,1.109-1.679,1.75-2.347C15.22,6.664,15.5,6.171,15.5,5.5c0-1.587-1.567-3-3.5-3
			c-1.933,0-3.5,1.663-3.5,3.25h2c0-0.75,0.5-1.5,1.5-1.5s1.5,0.5,1.5,1.25s-1.375,1.375-1.75,1.75S11,8.25,11,9.5H13z"/>
	</g>
</g>
</svg>
