<?xml version="1.0" encoding="utf-8"?>
<!DOCTYPE svg PUBLIC "-//W3C//DTD SVG 1.1 Basic//EN" "http://www.w3.org/Graphics/SVG/1.1/DTD/svg11-basic.dtd">
<svg version="1.1" baseProfile="basic" id="Button_Icons"
	 xmlns="http://www.w3.org/2000/svg" xmlns:xlink="http://www.w3.org/1999/xlink" x="0px" y="0px" width="24px" height="15px"
	 viewBox="0 0 24 15" xml:space="preserve">
<g>
	<g>
		<path fill="#FFFFFF" d="M12,1.75c-3.59,0-6.5,2.91-6.5,6.5c0,3.59,2.91,6.5,6.5,6.5s6.5-2.91,6.5-6.5
			C18.5,4.66,15.59,1.75,12,1.75z M11,3.25h2v2h-2V3.25z M14,12.75h-4v-2h1v-2.5h-1v-2h3v4.5h1V12.75z"/>
	</g>
	<g>
		<linearGradient id="SVGID_1_" gradientUnits="userSpaceOnUse" x1="12.0005" y1="14" x2="12.0005" y2="1.0005">
			<stop  offset="0" style="stop-color:#7A7B7B"/>
			<stop  offset="1" style="stop-color:#404040"/>
		</linearGradient>
		<path fill="url(#SVGID_1_)" d="M12,1C8.41,1,5.5,3.91,5.5,7.5c0,3.59,2.91,6.5,6.5,6.5s6.5-2.91,6.5-6.5
			C18.5,3.91,15.59,1,12,1z M11,2.5h2v2h-2V2.5z M14,12h-4v-2h1V7.5h-1v-2h3V10h1V12z"/>
	</g>
</g>
</svg>
