<?xml version="1.0" encoding="utf-8"?>
<!DOCTYPE svg PUBLIC "-//W3C//DTD SVG 1.1 Basic//EN" "http://www.w3.org/Graphics/SVG/1.1/DTD/svg11-basic.dtd">
<svg version="1.1" baseProfile="basic" id="Button_Icons"
	 xmlns="http://www.w3.org/2000/svg" xmlns:xlink="http://www.w3.org/1999/xlink" x="0px" y="0px" width="24px" height="15px"
	 viewBox="0 0 24 15" xml:space="preserve">
<g id="Button_Icons_1_">
	<g>
		<path id="info_2_" fill="#FFFFFF" d="M12,1.75c-3.59,0-6.5,2.91-6.5,6.5s2.91,6.5,6.5,6.5s6.5-2.91,6.5-6.5S15.59,1.75,12,1.75z
			 M11.021,3.25H13v2h-1.979V3.25z M14,13.25h-4v-2h1v-3h-1v-2h3v5h1V13.25z"/>
	</g>
	<g>
		<linearGradient id="info_3_" gradientUnits="userSpaceOnUse" x1="12.0005" y1="14" x2="12.0005" y2="1.001">
			<stop  offset="0" style="stop-color:#7A7B7B"/>
			<stop  offset="1" style="stop-color:#404040"/>
		</linearGradient>
		<path id="info_1_" fill="url(#info_3_)" d="M12,1C8.41,1,5.5,3.91,5.5,7.5C5.5,11.09,8.41,14,12,14s6.5-2.91,6.5-6.5
			C18.5,3.91,15.59,1,12,1z M11.021,2.5H13v2h-1.979V2.5z M14,12.5h-4v-2h1v-3h-1v-2h3v5h1V12.5z"/>
	</g>
</g>
</svg>
