<?xml version="1.0" encoding="utf-8"?>
<!DOCTYPE svg PUBLIC "-//W3C//DTD SVG 1.1 Basic//EN" "http://www.w3.org/Graphics/SVG/1.1/DTD/svg11-basic.dtd">
<svg version="1.1" baseProfile="basic" id="Button_Icons"
	 xmlns="http://www.w3.org/2000/svg" xmlns:xlink="http://www.w3.org/1999/xlink" x="0px" y="0px" width="24px" height="15px"
	 viewBox="0 0 24 15" xml:space="preserve">
<g id="Button_Icons_1_">
	<g>
		<path id="key-alt_2_" fill="#FFFFFF" d="M14,0.75l-1.5,0.5l-2,3v3L5,12.75l1,2h2v-2h2.047v-2h2v-1.5H15.5l3-2l0.5-1.5L14,0.75z
			 M17,6.75c-0.293,0.293-0.768,0.293-1.061,0L13,3.811c-0.293-0.293-0.293-0.768,0-1.061s0.768-0.293,1.061,0L17,5.689
			C17.293,5.982,17.293,6.457,17,6.75z"/>
	</g>
	<g>
		<linearGradient id="key-alt_3_" gradientUnits="userSpaceOnUse" x1="12" y1="14" x2="12" y2="-8.913048e-11">
			<stop  offset="0" style="stop-color:#7A7B7B"/>
			<stop  offset="1" style="stop-color:#404040"/>
		</linearGradient>
		<path id="key-alt_1_" fill="url(#key-alt_3_)" d="M14,0l-1.5,0.5l-2,3v3L5,12l1,2h2v-2h2.047v-2h2V8.5H15.5l3-2L19,5L14,0z M17,6
			c-0.293,0.293-0.768,0.293-1.061,0L13,3.061C12.707,2.768,12.707,2.293,13,2s0.768-0.293,1.061,0L17,4.939
			C17.293,5.232,17.293,5.707,17,6z"/>
	</g>
</g>
</svg>
