<?xml version="1.0" encoding="utf-8"?>
<!DOCTYPE svg PUBLIC "-//W3C//DTD SVG 1.1 Basic//EN" "http://www.w3.org/Graphics/SVG/1.1/DTD/svg11-basic.dtd">
<svg version="1.1" baseProfile="basic" id="Button_Icons"
	 xmlns="http://www.w3.org/2000/svg" xmlns:xlink="http://www.w3.org/1999/xlink" x="0px" y="0px" width="24px" height="15px"
	 viewBox="0 0 24 15" xml:space="preserve">
<g>
	<g>
		<path fill="#FFFFFF" d="M12,6.25c0-2.485-2.015-4.5-4.5-4.5S3,3.765,3,6.25s2.015,4.5,4.5,4.5
			c0.894,0,1.723-0.269,2.423-0.718L11,10.75l2-0.25v1.25l2-0.25v1.25l2-0.25v1.25l2-0.25l1-0.75v-1.5L12,6.25z M5.5,6.25
			c-0.552,0-1-0.448-1-1s0.448-1,1-1s1,0.448,1,1S6.052,6.25,5.5,6.25z"/>
	</g>
	<g>
		<linearGradient id="SVGID_1_" gradientUnits="userSpaceOnUse" x1="11.5005" y1="13" x2="11.5005" y2="1.0005">
			<stop  offset="0" style="stop-color:#7A7B7B"/>
			<stop  offset="1" style="stop-color:#404040"/>
		</linearGradient>
		<path fill="url(#SVGID_1_)" d="M12,5.5C12,3.015,9.985,1,7.5,1S3,3.015,3,5.5S5.015,10,7.5,10
			c0.894,0,1.723-0.269,2.423-0.718L11,10l2-0.25V11l2-0.25V12l2-0.25V13l2-0.25L20,12v-1.5L12,5.5z M5.5,5.5c-0.552,0-1-0.448-1-1
			s0.448-1,1-1s1,0.448,1,1S6.052,5.5,5.5,5.5z"/>
	</g>
</g>
</svg>
