<?xml version="1.0" encoding="utf-8"?>
<!DOCTYPE svg PUBLIC "-//W3C//DTD SVG 1.1 Basic//EN" "http://www.w3.org/Graphics/SVG/1.1/DTD/svg11-basic.dtd">
<svg version="1.1" baseProfile="basic" id="Button_Icons"
	 xmlns="http://www.w3.org/2000/svg" xmlns:xlink="http://www.w3.org/1999/xlink" x="0px" y="0px" width="24px" height="15px"
	 viewBox="0 0 24 15" xml:space="preserve">
<g id="Button_Icons_1_">
	<g>
		<path id="lightbulb_2_" fill="#FFFFFF" d="M12,0.75c-2.757,0-5,2.243-5,5C7,7.2,7.666,8.577,8.876,9.628
			C9.278,9.977,9.5,10.731,9.5,11.75v1.5c0,0.827,0.673,1.5,1.5,1.5h1h1c0.827,0,1.5-0.673,1.5-1.5v-1.5
			c0-1.019,0.222-1.773,0.624-2.122C16.334,8.577,17,7.2,17,5.75C17,2.993,14.757,0.75,12,0.75L12,0.75z M14.141,8.495
			c-0.577,0.501-0.934,1.259-1.073,2.255h-2.137c-0.139-0.996-0.496-1.754-1.073-2.255C9.352,8.054,8.5,7.111,8.5,5.75
			c0-1.93,1.57-3.5,3.5-3.5s3.5,1.57,3.5,3.5C15.5,7.111,14.648,8.054,14.141,8.495z M12,6.957l-1-1l-0.646,0.646L9.646,5.896
			L11,4.543l1,1l1-1l1.354,1.354l-0.707,0.707L13,5.957L12,6.957z"/>
	</g>
	<g>
		<linearGradient id="lightbulb_3_" gradientUnits="userSpaceOnUse" x1="12" y1="14" x2="12" y2="9.094947e-13">
			<stop  offset="0" style="stop-color:#7A7B7B"/>
			<stop  offset="1" style="stop-color:#404040"/>
		</linearGradient>
		<path id="lightbulb_1_" fill="url(#lightbulb_3_)" d="M12,0C9.243,0,7,2.243,7,5c0,1.45,0.666,2.827,1.876,3.878
			C9.278,9.227,9.5,9.981,9.5,11v1.5c0,0.827,0.673,1.5,1.5,1.5h1h1c0.827,0,1.5-0.673,1.5-1.5V11c0-1.019,0.222-1.773,0.624-2.122
			C16.334,7.827,17,6.45,17,5C17,2.243,14.757,0,12,0L12,0z M14.141,7.745C13.564,8.246,13.207,9.004,13.068,10h-2.137
			c-0.139-0.996-0.496-1.754-1.073-2.255C9.352,7.304,8.5,6.361,8.5,5c0-1.93,1.57-3.5,3.5-3.5s3.5,1.57,3.5,3.5
			C15.5,6.361,14.648,7.304,14.141,7.745z M12,6.207l-1-1l-0.646,0.646L9.646,5.146L11,3.793l1,1l1-1l1.354,1.354l-0.707,0.707
			L13,5.207L12,6.207z"/>
	</g>
</g>
</svg>
