<?xml version="1.0" encoding="utf-8"?>
<!DOCTYPE svg PUBLIC "-//W3C//DTD SVG 1.1 Basic//EN" "http://www.w3.org/Graphics/SVG/1.1/DTD/svg11-basic.dtd">
<svg version="1.1" baseProfile="basic" id="Button_Icons"
	 xmlns="http://www.w3.org/2000/svg" xmlns:xlink="http://www.w3.org/1999/xlink" x="0px" y="0px" width="24px" height="15px"
	 viewBox="0 0 24 15" xml:space="preserve">
<g>
	<g>
		<path fill="#FFFFFF" d="M19,3.75H8v2h11V3.75z M19,7.75H8v2h11V7.75z M19,11.75H8v2h11V11.75z M7,4.75
			c0,0.552-0.448,1-1,1s-1-0.448-1-1s0.448-1,1-1S7,4.198,7,4.75z M7,8.75c0,0.553-0.448,1-1,1s-1-0.447-1-1s0.448-1,1-1
			S7,8.197,7,8.75z M7,12.75c0,0.553-0.448,1-1,1s-1-0.447-1-1s0.448-1,1-1S7,12.197,7,12.75z"/>
	</g>
	<g>
		<linearGradient id="SVGID_1_" gradientUnits="userSpaceOnUse" x1="12.0005" y1="13" x2="12.0005" y2="3.0005">
			<stop  offset="0" style="stop-color:#7A7B7B"/>
			<stop  offset="1" style="stop-color:#404040"/>
		</linearGradient>
		<path fill="url(#SVGID_1_)" d="M19,3H8v2h11V3z M19,7H8v2h11V7z M19,11H8v2h11V11z M7,4c0,0.552-0.448,1-1,1
			S5,4.552,5,4s0.448-1,1-1S7,3.448,7,4z M7,8c0,0.553-0.448,1-1,1S5,8.553,5,8c0-0.552,0.448-1,1-1S7,7.448,7,8z M7,12
			c0,0.553-0.448,1-1,1s-1-0.447-1-1s0.448-1,1-1S7,11.447,7,12z"/>
	</g>
</g>
</svg>
