<?xml version="1.0" encoding="utf-8"?>
<!DOCTYPE svg PUBLIC "-//W3C//DTD SVG 1.1 Basic//EN" "http://www.w3.org/Graphics/SVG/1.1/DTD/svg11-basic.dtd">
<svg version="1.1" baseProfile="basic" id="Button_Icons"
	 xmlns="http://www.w3.org/2000/svg" xmlns:xlink="http://www.w3.org/1999/xlink" x="0px" y="0px" width="24px" height="15px"
	 viewBox="0 0 24 15" xml:space="preserve">
<g>
	<g>
		<path fill-rule="evenodd" clip-rule="evenodd" fill="#FFFDFD" d="M12,12.499l5.5-5.261L12,1.996v3.502
			c-6.506,0-6.5,4.267-6.5,4.75c0,3.519,2.996,4.502,7.006,4.502c-1.515-0.008-4.529-1.472-4.529-3.501
			c0-1.501,0.539-2.253,4.023-2.253V12.499z"/>
	</g>
	<g>
		<linearGradient id="SVGID_1_" gradientUnits="userSpaceOnUse" x1="11.5005" y1="14" x2="11.5005" y2="1.2466">
			<stop  offset="0" style="stop-color:#7A7B7B"/>
			<stop  offset="1" style="stop-color:#404040"/>
		</linearGradient>
		<path fill-rule="evenodd" clip-rule="evenodd" fill="url(#SVGID_1_)" d="M12,11.749l5.5-5.261L12,1.246v3.502
			c-6.506,0-6.5,4.267-6.5,4.75C5.5,13.017,8.496,14,12.506,14c-1.515-0.008-4.529-1.472-4.529-3.501
			c0-1.501,0.539-2.253,4.023-2.253V11.749z"/>
	</g>
</g>
</svg>
