<?xml version="1.0" encoding="utf-8"?>
<!DOCTYPE svg PUBLIC "-//W3C//DTD SVG 1.1 Basic//EN" "http://www.w3.org/Graphics/SVG/1.1/DTD/svg11-basic.dtd">
<svg version="1.1" baseProfile="basic" id="Button_Icons"
	 xmlns="http://www.w3.org/2000/svg" xmlns:xlink="http://www.w3.org/1999/xlink" x="0px" y="0px" width="24px" height="15px"
	 viewBox="0 0 24 15" xml:space="preserve">
<g>
	<g>
		<path fill="#FFFFFF" d="M17.5,6.75h-1v-2c0-2.209-1.791-4-4-4h-1c-2.209,0-4,1.791-4,4v2h-1
			C6.224,6.75,6,6.974,6,7.25v7c0,0.276,0.224,0.5,0.5,0.5h11c0.276,0,0.5-0.224,0.5-0.5v-7C18,6.974,17.776,6.75,17.5,6.75z
			 M9.5,4.75c0-1.104,0.896-2,2-2h1c1.104,0,2,0.896,2,2v2h-5V4.75z M12.5,10.597l0.25,2.153h-1.5l0.25-2.153
			c-0.294-0.175-0.5-0.48-0.5-0.847c0-0.553,0.447-1,1-1s1,0.447,1,1C13,10.116,12.793,10.423,12.5,10.597z"/>
	</g>
	<g>
		<linearGradient id="SVGID_1_" gradientUnits="userSpaceOnUse" x1="12.0005" y1="14" x2="12.0005" y2="4.882812e-04">
			<stop  offset="0" style="stop-color:#7A7B7B"/>
			<stop  offset="1" style="stop-color:#404040"/>
		</linearGradient>
		<path fill="url(#SVGID_1_)" d="M17.5,6h-1V4c0-2.209-1.791-4-4-4h-1c-2.209,0-4,1.791-4,4v2h-1C6.224,6,6,6.224,6,6.5
			v7C6,13.776,6.224,14,6.5,14h11c0.276,0,0.5-0.224,0.5-0.5v-7C18,6.224,17.776,6,17.5,6z M9.5,4c0-1.104,0.896-2,2-2h1
			c1.104,0,2,0.896,2,2v2h-5V4z M12.5,9.847L12.75,12h-1.5l0.25-2.153C11.206,9.672,11,9.366,11,9c0-0.553,0.447-1,1-1s1,0.447,1,1
			C13,9.366,12.793,9.673,12.5,9.847z"/>
	</g>
</g>
</svg>
