<?xml version="1.0" encoding="utf-8"?>
<!DOCTYPE svg PUBLIC "-//W3C//DTD SVG 1.1 Basic//EN" "http://www.w3.org/Graphics/SVG/1.1/DTD/svg11-basic.dtd">
<svg version="1.1" baseProfile="basic" id="Button_Icons"
	 xmlns="http://www.w3.org/2000/svg" xmlns:xlink="http://www.w3.org/1999/xlink" x="0px" y="0px" width="24px" height="15px"
	 viewBox="0 0 24 15" xml:space="preserve">
<g id="Button_Icons_1_">
	<g>
		<path fill="#FFFFFF" d="M4,2.75v11h16v-11H4z M16.75,4.75L12,8.5L7.25,4.75H16.75z M6,6l3.667,2.75L6,11.5V6z M7,11.75
			l2.857-2.857L12,10.5l2.143-1.607L17,11.75H7z M18,11.5l-3.667-2.75L18,6V11.5z"/>
	</g>
	<g>
		<linearGradient id="SVGID_1_" gradientUnits="userSpaceOnUse" x1="12.0005" y1="13" x2="12.0005" y2="2.0005">
			<stop  offset="0" style="stop-color:#7A7B7B"/>
			<stop  offset="1" style="stop-color:#404040"/>
		</linearGradient>
		<path fill="url(#SVGID_1_)" d="M4,2v11h16V2H4z M16.75,4L12,7.75L7.25,4H16.75z M6,5.25L9.667,8L6,10.75V5.25z M7,11l2.857-2.857
			L12,9.75l2.143-1.607L17,11H7z M18,10.75L14.333,8L18,5.25V10.75z"/>
	</g>
</g>
</svg>
