<?xml version="1.0" encoding="utf-8"?>
<!DOCTYPE svg PUBLIC "-//W3C//DTD SVG 1.1 Basic//EN" "http://www.w3.org/Graphics/SVG/1.1/DTD/svg11-basic.dtd">
<svg version="1.1" baseProfile="basic" id="Button_Icons"
	 xmlns="http://www.w3.org/2000/svg" xmlns:xlink="http://www.w3.org/1999/xlink" x="0px" y="0px" width="24px" height="15px"
	 viewBox="0 0 24 15" xml:space="preserve">
<g>
	<g>
		<path fill="#FFFFFF" d="M9,5.75H6v-3h3V5.75z M13,5.75h-3v-3h3V5.75z M17,5.75h-3v-3h3
			V5.75z M9,9.75H6v-3h3V9.75z M13,9.75h-3v-3h3V9.75z M17,9.75h-3v-3h3V9.75z M9,13.75H6v-3h3V13.75z M13,13.75h-3v-3h3V13.75z
			 M17,13.75h-3v-3h3V13.75z"/>
	</g>
	<g>
		<linearGradient id="SVGID_1_" gradientUnits="userSpaceOnUse" x1="11.5005" y1="13" x2="11.5005" y2="2.0005">
			<stop  offset="0" style="stop-color:#7A7B7B"/>
			<stop  offset="1" style="stop-color:#404040"/>
		</linearGradient>
		<path fill="url(#SVGID_1_)" d="M9,5H6V2h3V5z M13,5h-3V2h3V5z M17,5h-3V2h3V5z M9,9H6V6
			h3V9z M13,9h-3V6h3V9z M17,9h-3V6h3V9z M9,13H6v-3h3V13z M13,13h-3v-3h3V13z M17,13h-3v-3h3V13z"/>
	</g>
</g>
</svg>
