<?xml version="1.0" encoding="utf-8"?>
<!DOCTYPE svg PUBLIC "-//W3C//DTD SVG 1.1 Basic//EN" "http://www.w3.org/Graphics/SVG/1.1/DTD/svg11-basic.dtd">
<svg version="1.1" baseProfile="basic" id="Button_Icons"
	 xmlns="http://www.w3.org/2000/svg" xmlns:xlink="http://www.w3.org/1999/xlink" x="0px" y="0px" width="24px" height="15px"
	 viewBox="0 0 24 15" xml:space="preserve">
<g>
	<g>
		<path fill="#FFFFFF" d="M12,1.75c-3.59,0-6.5,2.91-6.5,6.5s2.91,6.5,6.5,6.5s6.5-2.91,6.5-6.5S15.59,1.75,12,1.75z
			 M12,12.75c-2.485,0-4.5-2.015-4.5-4.5s2.015-4.5,4.5-4.5s4.5,2.015,4.5,4.5S14.485,12.75,12,12.75z"/>
	</g>
	<g>
		<linearGradient id="SVGID_1_" gradientUnits="userSpaceOnUse" x1="12.0005" y1="14" x2="12.0005" y2="1.0005">
			<stop  offset="0" style="stop-color:#7A7B7B"/>
			<stop  offset="1" style="stop-color:#404040"/>
		</linearGradient>
		<path fill="url(#SVGID_1_)" d="M12,1C8.41,1,5.5,3.91,5.5,7.5S8.41,14,12,14s6.5-2.91,6.5-6.5S15.59,1,12,1z M12,12
			c-2.485,0-4.5-2.015-4.5-4.5S9.515,3,12,3s4.5,2.015,4.5,4.5S14.485,12,12,12z"/>
	</g>
</g>
</svg>
