<?xml version="1.0" encoding="utf-8"?>
<!DOCTYPE svg PUBLIC "-//W3C//DTD SVG 1.1 Basic//EN" "http://www.w3.org/Graphics/SVG/1.1/DTD/svg11-basic.dtd">
<svg version="1.1" baseProfile="basic" id="Button_Icons"
	 xmlns="http://www.w3.org/2000/svg" xmlns:xlink="http://www.w3.org/1999/xlink" x="0px" y="0px" width="24px" height="15px"
	 viewBox="0 0 24 15" xml:space="preserve">
<g>
	<g>
		<path fill-rule="evenodd" clip-rule="evenodd" fill="#FFFDFD" d="M18.5,8.25c0,3.59-2.91,6.5-6.5,6.5s-6.5-2.91-6.5-6.5
			s2.91-6.5,6.5-6.5S18.5,4.66,18.5,8.25z M12.834,7.43c-1.054-0.38-1.483-0.65-1.483-1.042c0-0.343,0.258-0.698,1.054-0.698
			c0.882,0,1.458,0.282,1.765,0.429l0.367-1.385c-0.43-0.196-0.979-0.38-1.788-0.404V3.25h-1.5v1.229
			c-1.146,0.303-1.773,1.1-1.773,2.117c0,1.189,0.895,1.801,2.206,2.243c0.919,0.306,1.312,0.601,1.312,1.066
			c0,0.478-0.479,0.76-1.189,0.76c-0.796,0-1.52-0.258-2.035-0.539L9.403,11.56c0.418,0.23,1.116,0.434,1.847,0.502v1.188h1.5
			v-1.262c1.408-0.233,2.119-1.164,2.119-2.255C14.869,8.618,14.293,7.944,12.834,7.43z"/>
	</g>
	<g>
		<linearGradient id="SVGID_1_" gradientUnits="userSpaceOnUse" x1="12.0005" y1="14" x2="12.0005" y2="1.0005">
			<stop  offset="0" style="stop-color:#7A7B7B"/>
			<stop  offset="1" style="stop-color:#404040"/>
		</linearGradient>
		<path fill-rule="evenodd" clip-rule="evenodd" fill="url(#SVGID_1_)" d="M18.5,7.5c0,3.59-2.91,6.5-6.5,6.5s-6.5-2.91-6.5-6.5
			S8.41,1,12,1S18.5,3.91,18.5,7.5z M12.834,6.68c-1.054-0.38-1.483-0.65-1.483-1.042c0-0.343,0.258-0.698,1.054-0.698
			c0.882,0,1.458,0.282,1.765,0.429l0.367-1.385c-0.43-0.196-0.979-0.38-1.788-0.404V2.5h-1.5v1.229
			c-1.146,0.303-1.773,1.1-1.773,2.117c0,1.189,0.895,1.801,2.206,2.243c0.919,0.306,1.312,0.601,1.312,1.066
			c0,0.478-0.479,0.76-1.189,0.76c-0.796,0-1.52-0.258-2.035-0.539L9.403,10.81c0.418,0.23,1.116,0.434,1.847,0.502V12.5h1.5v-1.262
			c1.408-0.233,2.119-1.164,2.119-2.255C14.869,7.868,14.293,7.194,12.834,6.68z"/>
	</g>
</g>
</svg>
