<?xml version="1.0" encoding="utf-8"?>
<!DOCTYPE svg PUBLIC "-//W3C//DTD SVG 1.1 Basic//EN" "http://www.w3.org/Graphics/SVG/1.1/DTD/svg11-basic.dtd">
<svg version="1.1" baseProfile="basic" id="Button_Icons"
	 xmlns="http://www.w3.org/2000/svg" xmlns:xlink="http://www.w3.org/1999/xlink" x="0px" y="0px" width="24px" height="15px"
	 viewBox="0 0 24 15" xml:space="preserve">
<g>
	<g>
		<path fill="#FFFFFF" d="M18,8.75l-0.947-1.165l-6.144,4.989c-1.289,1.048-3.183,0.854-4.23-0.435
			c-1.049-1.284-0.854-3.177,0.435-4.224l6.522-5.272c0.751-0.61,1.855-0.497,2.467,0.253c0.61,0.75,0.499,1.854-0.253,2.464
			l-6.134,4.956c-0.215,0.174-0.53,0.143-0.705-0.072C8.836,10.03,8.868,9.716,9.083,9.541l5.938-4.798l-0.947-1.164l-5.94,4.798
			c-0.858,0.697-0.988,1.958-0.29,2.816s1.962,0.987,2.82,0.289l6.135-4.956c1.395-1.134,1.605-3.183,0.47-4.576
			c-1.135-1.394-3.187-1.604-4.583-0.471L6.164,6.751C4.232,8.32,3.939,11.158,5.512,13.09c1.573,1.928,4.415,2.22,6.346,0.649
			L18,8.75z"/>
	</g>
	<g>
		<linearGradient id="SVGID_1_" gradientUnits="userSpaceOnUse" x1="11.2505" y1="14" x2="11.2505" y2="4.882812e-04">
			<stop  offset="0" style="stop-color:#7A7B7B"/>
			<stop  offset="1" style="stop-color:#404040"/>
		</linearGradient>
		<path fill="url(#SVGID_1_)" d="M18,8l-0.947-1.165l-6.144,4.989c-1.289,1.048-3.183,0.854-4.23-0.435
			c-1.049-1.284-0.854-3.177,0.435-4.224l6.522-5.272c0.751-0.61,1.855-0.497,2.467,0.253c0.61,0.75,0.499,1.854-0.253,2.464
			L9.716,9.567C9.501,9.741,9.186,9.71,9.011,9.495C8.836,9.28,8.868,8.966,9.083,8.791l5.938-4.798l-0.947-1.164l-5.94,4.798
			c-0.858,0.697-0.988,1.958-0.29,2.816s1.962,0.987,2.82,0.289l6.135-4.956c1.395-1.134,1.605-3.183,0.47-4.576
			c-1.135-1.394-3.187-1.604-4.583-0.471L6.164,6.001C4.232,7.57,3.939,10.408,5.512,12.34c1.573,1.928,4.415,2.22,6.346,0.649L18,8
			z"/>
	</g>
</g>
</svg>
