<?xml version="1.0" encoding="utf-8"?>
<!DOCTYPE svg PUBLIC "-//W3C//DTD SVG 1.1 Basic//EN" "http://www.w3.org/Graphics/SVG/1.1/DTD/svg11-basic.dtd">
<svg version="1.1" baseProfile="basic" id="Button_Icons"
	 xmlns="http://www.w3.org/2000/svg" xmlns:xlink="http://www.w3.org/1999/xlink" x="0px" y="0px" width="24px" height="15px"
	 viewBox="0 0 24 15" xml:space="preserve">
<g>
	<g>
		<path fill="#FFFFFF" d="M3,4.75H2v-1h1V4.75z M12,3.75H4v1h8V3.75z M4,6.753H3v1h1V6.753
			z M13,6.753H5v1h8V6.753z M5,9.752H4v1h1V9.752z M14,9.752H6v1h8V9.752z M6,12.751H5v1h1V12.751z M15,12.751H7v1h8V12.751z
			 M17,6.767l3.494,5l3.506-5H17z"/>
	</g>
	<g>
		<linearGradient id="SVGID_1_" gradientUnits="userSpaceOnUse" x1="13" y1="13.001" x2="13" y2="3.001">
			<stop  offset="0" style="stop-color:#7A7B7B"/>
			<stop  offset="1" style="stop-color:#404040"/>
		</linearGradient>
		<path fill="url(#SVGID_1_)" d="M3,4H2V3h1V4z M12,3H4v1h8V3z M4,6.003H3v1h1V6.003z
			 M13,6.003H5v1h8V6.003z M5,9.002H4v1h1V9.002z M14,9.002H6v1h8V9.002z M6,12.001H5v1h1V12.001z M15,12.001H7v1h8V12.001z
			 M17,6.017l3.494,5l3.506-5H17z"/>
	</g>
</g>
</svg>
