<?xml version="1.0" encoding="utf-8"?>
<!DOCTYPE svg PUBLIC "-//W3C//DTD SVG 1.1 Basic//EN" "http://www.w3.org/Graphics/SVG/1.1/DTD/svg11-basic.dtd">
<svg version="1.1" baseProfile="basic" id="Button_Icons"
	 xmlns="http://www.w3.org/2000/svg" xmlns:xlink="http://www.w3.org/1999/xlink" x="0px" y="0px" width="24px" height="15px"
	 viewBox="0 0 24 15" xml:space="preserve">
<g>
	<g>
		<path fill="#FFFFFF" d="M12.009,2.746c-5.31,0-9.509,5.492-9.509,5.492
			s4.199,5.511,9.52,5.511c5.272,0,9.48-5.481,9.48-5.481S17.318,2.746,12.009,2.746z M12.009,11.757
			c-1.94,0-3.512-1.572-3.512-3.511s1.571-3.51,3.512-3.51c1.938,0,3.511,1.572,3.511,3.51S13.947,11.757,12.009,11.757z
			 M12.009,6.752c0.825,0,1.494,0.668,1.494,1.494c0,0.825-0.669,1.494-1.494,1.494c-0.826,0-1.495-0.669-1.495-1.494
			C10.514,7.42,11.183,6.752,12.009,6.752z"/>
	</g>
	<g>
		<linearGradient id="SVGID_1_" gradientUnits="userSpaceOnUse" x1="12.0005" y1="12.999" x2="12.0005" y2="1.9966">
			<stop  offset="0" style="stop-color:#7A7B7B"/>
			<stop  offset="1" style="stop-color:#404040"/>
		</linearGradient>
		<path fill="url(#SVGID_1_)" d="M12.009,1.996c-5.31,0-9.509,5.492-9.509,5.492
			s4.199,5.511,9.52,5.511c5.272,0,9.48-5.481,9.48-5.481S17.318,1.996,12.009,1.996z M12.009,11.007
			c-1.94,0-3.512-1.572-3.512-3.511s1.571-3.51,3.512-3.51c1.938,0,3.511,1.572,3.511,3.51S13.947,11.007,12.009,11.007z
			 M12.009,6.002c0.825,0,1.494,0.668,1.494,1.494c0,0.825-0.669,1.494-1.494,1.494c-0.826,0-1.495-0.669-1.495-1.494
			C10.514,6.67,11.183,6.002,12.009,6.002z"/>
	</g>
</g>
</svg>
