<?xml version="1.0" encoding="utf-8"?>
<!DOCTYPE svg PUBLIC "-//W3C//DTD SVG 1.1 Basic//EN" "http://www.w3.org/Graphics/SVG/1.1/DTD/svg11-basic.dtd">
<svg version="1.1" baseProfile="basic" id="Button_Icons"
	 xmlns="http://www.w3.org/2000/svg" xmlns:xlink="http://www.w3.org/1999/xlink" x="0px" y="0px" width="24px" height="15px"
	 viewBox="0 0 24 15" xml:space="preserve">
<g>
	<g>
		<path fill="#FFFFFF" d="M5,13.75H3v-11h2V13.75z M6.5,2.75H6v11h0.5V2.75z M7.5,2.75H7v11h0.5V2.75z M18,2.75
			h-0.5v11H18V2.75z M13.5,2.75H13v11h0.5V2.75z M10.5,2.75H9v11h1.5V2.75z M16,2.75h-1v11h1V2.75z M17,2.75h-0.5v11H17V2.75z
			 M12,2.75h-1v11h1V2.75z M21,2.75h-2v11h2V2.75z"/>
	</g>
	<g>
		<linearGradient id="SVGID_1_" gradientUnits="userSpaceOnUse" x1="12.0005" y1="13" x2="12.0005" y2="2.0005">
			<stop  offset="0" style="stop-color:#7A7B7B"/>
			<stop  offset="1" style="stop-color:#404040"/>
		</linearGradient>
		<path fill="url(#SVGID_1_)" d="M5,13H3V2h2V13z M6.5,2H6v11h0.5V2z M7.5,2H7v11h0.5V2z M18,2h-0.5v11H18V2z
			 M13.5,2H13v11h0.5V2z M10.5,2H9v11h1.5V2z M16,2h-1v11h1V2z M17,2h-0.5v11H17V2z M12,2h-1v11h1V2z M21,2h-2v11h2V2z"/>
	</g>
</g>
</svg>
