<?xml version="1.0" encoding="utf-8"?>
<!DOCTYPE svg PUBLIC "-//W3C//DTD SVG 1.1 Basic//EN" "http://www.w3.org/Graphics/SVG/1.1/DTD/svg11-basic.dtd">
<svg version="1.1" baseProfile="basic" id="Button_Icons"
	 xmlns="http://www.w3.org/2000/svg" xmlns:xlink="http://www.w3.org/1999/xlink" x="0px" y="0px" width="24px" height="15px"
	 viewBox="0 0 24 15" xml:space="preserve">
<g>
	<g>
		<path fill="#FFFFFF" d="M19.5,6.25c-0.839,0-1.555,0.518-1.852,1.25h-2.45L14.5,9.735L12,1.75L9.908,8.5L8,3.73
			L6.492,7.5H3V9h4.508L8,7.77l2,4.98l2.005-5.968L14.5,14.75L16.302,9h1.347c0.297,0.732,1.013,1.25,1.852,1.25
			c1.105,0,2-0.895,2-2S20.605,6.25,19.5,6.25z"/>
	</g>
	<g>
		<linearGradient id="SVGID_1_" gradientUnits="userSpaceOnUse" x1="12.25" y1="14" x2="12.25" y2="1">
			<stop  offset="0" style="stop-color:#7A7B7B"/>
			<stop  offset="1" style="stop-color:#404040"/>
		</linearGradient>
		<path fill="url(#SVGID_1_)" d="M19.5,5.5c-0.839,0-1.555,0.518-1.852,1.25h-2.45L14.5,8.985L12,1L9.908,7.75L8,2.98
			L6.492,6.75H3v1.5h4.508L8,7.02L10,12l2.005-5.968L14.5,14l1.802-5.75h1.347C17.945,8.982,18.661,9.5,19.5,9.5
			c1.105,0,2-0.895,2-2S20.605,5.5,19.5,5.5z"/>
	</g>
</g>
</svg>
