<?xml version="1.0" encoding="utf-8"?>
<!DOCTYPE svg PUBLIC "-//W3C//DTD SVG 1.1 Basic//EN" "http://www.w3.org/Graphics/SVG/1.1/DTD/svg11-basic.dtd">
<svg version="1.1" baseProfile="basic" id="Button_Icons"
	 xmlns="http://www.w3.org/2000/svg" xmlns:xlink="http://www.w3.org/1999/xlink" x="0px" y="0px" width="24px" height="15px"
	 viewBox="0 0 24 15" xml:space="preserve">
<g>
	<g>
		<path fill="#FFFFFF" d="M15.5,8.75c0,1.933-1.567,3.5-3.5,3.5c-1.933,0-3.5-1.567-3.5-3.5
			c0-1.933,1.567-3.5,3.5-3.5v2.5l5-3.5l-5-3.5v2c-3.313,0-6,2.687-6,6s2.687,6,6,6s6-2.687,6-6H15.5z"/>
	</g>
	<g>
		<linearGradient id="SVGID_1_" gradientUnits="userSpaceOnUse" x1="12.0005" y1="14" x2="12.0005" y2="4.882812e-04">
			<stop  offset="0" style="stop-color:#7A7B7B"/>
			<stop  offset="1" style="stop-color:#404040"/>
		</linearGradient>
		<path fill="url(#SVGID_1_)" d="M15.5,8c0,1.933-1.567,3.5-3.5,3.5c-1.933,0-3.5-1.567-3.5-3.5
			c0-1.933,1.567-3.5,3.5-3.5V7l5-3.5L12,0v2C8.687,2,6,4.687,6,8s2.687,6,6,6s6-2.687,6-6H15.5z"/>
	</g>
</g>
</svg>
