<?xml version="1.0" encoding="utf-8"?>
<!DOCTYPE svg PUBLIC "-//W3C//DTD SVG 1.1 Basic//EN" "http://www.w3.org/Graphics/SVG/1.1/DTD/svg11-basic.dtd">
<svg version="1.1" baseProfile="basic" id="Button_Icons"
	 xmlns="http://www.w3.org/2000/svg" xmlns:xlink="http://www.w3.org/1999/xlink" x="0px" y="0px" width="24px" height="15px"
	 viewBox="0 0 24 15" xml:space="preserve">
<g>
	<g>
		<path fill="#FFFFFF" d="M13,12.75h-2v-6h2V12.75z M10,5.75H8v7h2V5.75z M7,12.75v-4H5v4H7z M16,5.75h-2v7h2V5.75z
			 M19,3.75h-2v9h2V3.75z M21,1.75v13H3v-13H21z M20,2.75H4v11h16V2.75z"/>
	</g>
	<g>
		<linearGradient id="SVGID_1_" gradientUnits="userSpaceOnUse" x1="12.0005" y1="14" x2="12.0005" y2="1.0005">
			<stop  offset="0" style="stop-color:#7A7B7B"/>
			<stop  offset="1" style="stop-color:#404040"/>
		</linearGradient>
		<path fill="url(#SVGID_1_)" d="M13,12h-2V6h2V12z M10,5H8v7h2V5z M7,12V8H5v4H7z M16,5h-2v7h2V5z M19,3h-2v9h2V3z
			 M21,1v13H3V1H21z M20,2H4v11h16V2z"/>
	</g>
</g>
</svg>
