<?xml version="1.0" encoding="utf-8"?>
<!DOCTYPE svg PUBLIC "-//W3C//DTD SVG 1.1 Basic//EN" "http://www.w3.org/Graphics/SVG/1.1/DTD/svg11-basic.dtd">
<svg version="1.1" baseProfile="basic" id="Button_Icons"
	 xmlns="http://www.w3.org/2000/svg" xmlns:xlink="http://www.w3.org/1999/xlink" x="0px" y="0px" width="24px" height="15px"
	 viewBox="0 0 24 15" xml:space="preserve">
<g>
	<g>
		<path fill="#FFFFFF" d="M5,13.75H3v-3h2V13.75z M8,7.75H6v6h2V7.75z M11,4.75H9v9h2V4.75z M14,5.75h-2v8h2V5.75z
			 M17,3.75h-2v10h2V3.75z M20,2.75h-2v11h2V2.75z"/>
	</g>
	<g>
		<linearGradient id="SVGID_1_" gradientUnits="userSpaceOnUse" x1="11.5005" y1="13" x2="11.5005" y2="2.0005">
			<stop  offset="0" style="stop-color:#7A7B7B"/>
			<stop  offset="1" style="stop-color:#404040"/>
		</linearGradient>
		<path fill="url(#SVGID_1_)" d="M5,13H3v-3h2V13z M8,7H6v6h2V7z M11,4H9v9h2V4z M14,5h-2v8h2V5z M17,3h-2v10h2V3
			z M20,2h-2v11h2V2z"/>
	</g>
</g>
</svg>
