<?xml version="1.0" encoding="utf-8"?>
<!DOCTYPE svg PUBLIC "-//W3C//DTD SVG 1.1 Basic//EN" "http://www.w3.org/Graphics/SVG/1.1/DTD/svg11-basic.dtd">
<svg version="1.1" baseProfile="basic" id="Button_Icons"
	 xmlns="http://www.w3.org/2000/svg" xmlns:xlink="http://www.w3.org/1999/xlink" x="0px" y="0px" width="24px" height="15px"
	 viewBox="0 0 24 15" xml:space="preserve">
<g>
	<g>
		<path fill-rule="evenodd" clip-rule="evenodd" fill="#FFFDFD" d="M5,13.752H3v-3h2V13.752z M8,7.752H6v6h2V7.752z M11,4.752H9v9h2
			V4.752z M14,5.752h-2v8h2V5.752z M17,3.752h-2v10h2V3.752z M20,2.752h-2v11h2V2.752z"/>
	</g>
	<g>
		<linearGradient id="SVGID_1_" gradientUnits="userSpaceOnUse" x1="11.5005" y1="13.002" x2="11.5005" y2="2.0024">
			<stop  offset="0" style="stop-color:#7A7B7B"/>
			<stop  offset="1" style="stop-color:#404040"/>
		</linearGradient>
		<path fill-rule="evenodd" clip-rule="evenodd" fill="url(#SVGID_1_)" d="M5,13.002H3v-3h2V13.002z M8,7.002H6v6h2V7.002z
			 M11,4.002H9v9h2V4.002z M14,5.002h-2v8h2V5.002z M17,3.002h-2v10h2V3.002z M20,2.002h-2v11h2V2.002z"/>
	</g>
</g>
</svg>
