<?xml version="1.0" encoding="utf-8"?>
<!DOCTYPE svg PUBLIC "-//W3C//DTD SVG 1.1 Basic//EN" "http://www.w3.org/Graphics/SVG/1.1/DTD/svg11-basic.dtd">
<svg version="1.1" baseProfile="basic" id="Button_Icons"
	 xmlns="http://www.w3.org/2000/svg" xmlns:xlink="http://www.w3.org/1999/xlink" x="0px" y="0px" width="24px" height="15px"
	 viewBox="0 0 24 15" xml:space="preserve">
<g>
	<g>
		<path fill="#FFFFFF" d="M12,3.778 M12,3.778l4,0.667V7.75c0,2.681-2.73,4.253-3.999,4.839L12,3.778z M12,1.75l-6,1
			v5c0,5,6,7,6,7s6-2,6-7v-5L12,1.75L12,1.75z"/>
	</g>
	<g>
		<linearGradient id="SVGID_1_" gradientUnits="userSpaceOnUse" x1="12" y1="14" x2="12" y2="1">
			<stop  offset="0" style="stop-color:#7A7B7B"/>
			<stop  offset="1" style="stop-color:#404040"/>
		</linearGradient>
		<path fill="url(#SVGID_1_)" d="M12,3.028 M12,3.028l4,0.667V7c0,2.681-2.73,4.253-3.999,4.839L12,3.028z M12,1
			L6,2v5c0,5,6,7,6,7s6-2,6-7V2L12,1L12,1z"/>
	</g>
</g>
</svg>
