<?xml version="1.0" encoding="utf-8"?>
<!DOCTYPE svg PUBLIC "-//W3C//DTD SVG 1.1 Basic//EN" "http://www.w3.org/Graphics/SVG/1.1/DTD/svg11-basic.dtd">
<svg version="1.1" baseProfile="basic" id="Button_Icons"
	 xmlns="http://www.w3.org/2000/svg" xmlns:xlink="http://www.w3.org/1999/xlink" x="0px" y="0px" width="24px" height="15px"
	 viewBox="0 0 24 15" xml:space="preserve">
<g>
	<g>
		<path fill="#FFFFFF" d="M10.198,4.609L5.337,8.25l4.861,3.641L9,13.5L2,8.25L9,3L10.198,4.609z M13.802,4.609
			l4.86,3.641l-4.86,3.641L15,13.5l7-5.25L15,3L13.802,4.609z"/>
	</g>
	<g>
		<linearGradient id="SVGID_1_" gradientUnits="userSpaceOnUse" x1="12.0005" y1="12.75" x2="12.0005" y2="2.2505">
			<stop  offset="0" style="stop-color:#7A7B7B"/>
			<stop  offset="1" style="stop-color:#404040"/>
		</linearGradient>
		<path fill="url(#SVGID_1_)" d="M10.198,3.859L5.337,7.5l4.861,3.641L9,12.75L2,7.5l7-5.25L10.198,3.859z
			 M13.802,3.859l4.86,3.641l-4.86,3.641L15,12.75l7-5.25l-7-5.25L13.802,3.859z"/>
	</g>
</g>
</svg>
