<?xml version="1.0" encoding="utf-8"?>
<!DOCTYPE svg PUBLIC "-//W3C//DTD SVG 1.1 Basic//EN" "http://www.w3.org/Graphics/SVG/1.1/DTD/svg11-basic.dtd">
<svg version="1.1" baseProfile="basic" id="Button_Icons"
	 xmlns="http://www.w3.org/2000/svg" xmlns:xlink="http://www.w3.org/1999/xlink" x="0px" y="0px" width="24px" height="15px"
	 viewBox="0 0 24 15" xml:space="preserve">
<g>
	<g>
		<path fill="#FFFFFF" d="M14.5,1.75h-5L6,5.25v5l3.5,3.5h5l3.5-3.5v-5L14.5,1.75z M12,11.75c-0.552,0-1-0.447-1-1
			s0.448-1,1-1s1,0.447,1,1S12.552,11.75,12,11.75z M12.75,8.75h-1.5l-0.25-5h2L12.75,8.75z"/>
	</g>
	<g>
		<linearGradient id="SVGID_1_" gradientUnits="userSpaceOnUse" x1="12.0005" y1="13" x2="12.0005" y2="1.0005">
			<stop  offset="0" style="stop-color:#7A7B7B"/>
			<stop  offset="1" style="stop-color:#404040"/>
		</linearGradient>
		<path fill="url(#SVGID_1_)" d="M14.5,1h-5L6,4.5v5L9.5,13h5L18,9.5v-5L14.5,1z M12,11c-0.552,0-1-0.447-1-1
			s0.448-1,1-1s1,0.447,1,1S12.552,11,12,11z M12.75,8h-1.5L11,3h2L12.75,8z"/>
	</g>
</g>
</svg>
