<?xml version="1.0" encoding="utf-8"?>
<!DOCTYPE svg PUBLIC "-//W3C//DTD SVG 1.1 Basic//EN" "http://www.w3.org/Graphics/SVG/1.1/DTD/svg11-basic.dtd">
<svg version="1.1" baseProfile="basic" id="Button_Icons"
	 xmlns="http://www.w3.org/2000/svg" xmlns:xlink="http://www.w3.org/1999/xlink" x="0px" y="0px" width="24px" height="15px"
	 viewBox="0 0 24 15" xml:space="preserve">
<g>
	<g>
		<path fill="#FFFFFF" d="M11,2.75H6.5C6.224,2.75,6,2.974,6,3.25v4.5l7,7l5-5L11,2.75z M8.5,6.25c-0.552,0-1-0.448-1-1
			s0.448-1,1-1s1,0.448,1,1S9.052,6.25,8.5,6.25z"/>
	</g>
	<g>
		<linearGradient id="SVGID_1_" gradientUnits="userSpaceOnUse" x1="12.0005" y1="14" x2="12.0005" y2="2.0005">
			<stop  offset="0" style="stop-color:#7A7B7B"/>
			<stop  offset="1" style="stop-color:#404040"/>
		</linearGradient>
		<path fill="url(#SVGID_1_)" d="M11,2H6.5C6.224,2,6,2.224,6,2.5V7l7,7l5-5L11,2z M8.5,5.5c-0.552,0-1-0.448-1-1
			s0.448-1,1-1s1,0.448,1,1S9.052,5.5,8.5,5.5z"/>
	</g>
</g>
</svg>
