<?xml version="1.0" encoding="utf-8"?>
<!DOCTYPE svg PUBLIC "-//W3C//DTD SVG 1.1 Basic//EN" "http://www.w3.org/Graphics/SVG/1.1/DTD/svg11-basic.dtd">
<svg version="1.1" baseProfile="basic" id="Button_Icons"
	 xmlns="http://www.w3.org/2000/svg" xmlns:xlink="http://www.w3.org/1999/xlink" x="0px" y="0px" width="24px" height="15px"
	 viewBox="0 0 24 15" xml:space="preserve">
<g>
	<g>
		<path fill="#FFFFFF" d="M17,2.75h-2v-1c0-0.552-0.447-1-1-1h-3c-0.553,0-1,0.448-1,1v1H8c-1.104,0-2,0.896-2,2
			h1.014l0.486,9c0,0.553,0.447,1,1,1h8c0.553,0,1-0.447,1-1l0.486-9H19C19,3.646,18.104,2.75,17,2.75z M10,12.25
			c0,0.276-0.224,0.5-0.5,0.5S9,12.526,9,12.25v-7.5h1V12.25z M12,12.25c0,0.276-0.224,0.5-0.5,0.5s-0.5-0.224-0.5-0.5v-7.5h1V12.25
			z M14,12.25c0,0.276-0.224,0.5-0.5,0.5s-0.5-0.224-0.5-0.5v-7.5h1V12.25z M14,2.75h-3c0,0,0-0.681,0-0.75
			c0-0.138,0.111-0.25,0.25-0.25h2.5C13.889,1.75,14,1.862,14,2C14,2.069,14,2.75,14,2.75z M16,12.25c0,0.276-0.224,0.5-0.5,0.5
			s-0.5-0.224-0.5-0.5v-7.5h1V12.25z"/>
	</g>
	<g>
		<linearGradient id="SVGID_1_" gradientUnits="userSpaceOnUse" x1="12.5005" y1="14" x2="12.5005" y2="4.882812e-04">
			<stop  offset="0" style="stop-color:#7A7B7B"/>
			<stop  offset="1" style="stop-color:#404040"/>
		</linearGradient>
		<path fill="url(#SVGID_1_)" d="M17,2h-2V1c0-0.552-0.447-1-1-1h-3c-0.553,0-1,0.448-1,1v1H8C6.896,2,6,2.896,6,4
			h1.014L7.5,13c0,0.553,0.447,1,1,1h8c0.553,0,1-0.447,1-1l0.486-9H19C19,2.896,18.104,2,17,2z M10,11.5c0,0.276-0.224,0.5-0.5,0.5
			S9,11.776,9,11.5V4h1V11.5z M12,11.5c0,0.276-0.224,0.5-0.5,0.5S11,11.776,11,11.5V4h1V11.5z M14,11.5c0,0.276-0.224,0.5-0.5,0.5
			S13,11.776,13,11.5V4h1V11.5z M14,2h-3c0,0,0-0.681,0-0.75C11,1.112,11.111,1,11.25,1h2.5C13.889,1,14,1.112,14,1.25
			C14,1.319,14,2,14,2z M16,11.5c0,0.276-0.224,0.5-0.5,0.5S15,11.776,15,11.5V4h1V11.5z"/>
	</g>
</g>
</svg>
