<?xml version="1.0" encoding="utf-8"?>
<!-- Generator: Adobe Illustrator 16.2.0, SVG Export Plug-In . SVG Version: 6.00 Build 0)  -->
<!DOCTYPE svg PUBLIC "-//W3C//DTD SVG 1.1 Basic//EN" "http://www.w3.org/Graphics/SVG/1.1/DTD/svg11-basic.dtd">
<svg version="1.1" baseProfile="basic" id="Button_Icons"
	 xmlns="http://www.w3.org/2000/svg" xmlns:xlink="http://www.w3.org/1999/xlink" x="0px" y="0px" width="24px" height="15px"
	 viewBox="0 0 24 15" xml:space="preserve">
<g id="Button_Icons_1_">
	<g>
		<path id="trash_4_" fill="#FFFFFF" d="M17.5,5.75c0-1.302-0.447-1.75-1-1.75L14,3.85v-1.1c0-0.552-0.447-1-1-1h-3
			c-0.552,0-1,0.448-1,1v1.1L6.5,4c-0.552,0-1,0.448-1,1.75h1.014l0.486,8c0,0.553,0.448,1,1,1h7c0.553,0,1-0.447,1-1l0.486-8H17.5z
			 M9,12.75c0,0.276-0.224,0.5-0.5,0.5S8,13.026,8,12.75v-7h1V12.75z M11,12.75c0,0.276-0.224,0.5-0.5,0.5s-0.5-0.224-0.5-0.5v-7h1
			V12.75z M13,12.75c0,0.276-0.224,0.5-0.5,0.5s-0.5-0.224-0.5-0.5v-7h1V12.75z M15,12.75c0,0.276-0.224,0.5-0.5,0.5
			s-0.5-0.224-0.5-0.5v-7h1V12.75z M10,3c0-0.138,0.112-0.25,0.25-0.25h2.5C12.888,2.75,13,2.862,13,3c0,0.069,0,0.568,0,0.8
			l-1.5-0.05L10,3.8C10,3.568,10,3.069,10,3z"/>
		<path id="trash_3_" fill="#FFFFFF" d="M17.5,5.75c0-1.302-0.447-1.75-1-1.75L14,3.85v-1.1c0-0.552-0.447-1-1-1h-3
			c-0.552,0-1,0.448-1,1v1.1L6.5,4c-0.552,0-1,0.448-1,1.75h1.014l0.486,8c0,0.553,0.448,1,1,1h7c0.553,0,1-0.447,1-1l0.486-8H17.5z
			 M9,12.75c0,0.276-0.224,0.5-0.5,0.5S8,13.026,8,12.75v-7h1V12.75z M11,12.75c0,0.276-0.224,0.5-0.5,0.5s-0.5-0.224-0.5-0.5v-7h1
			V12.75z M13,12.75c0,0.276-0.224,0.5-0.5,0.5s-0.5-0.224-0.5-0.5v-7h1V12.75z M15,12.75c0,0.276-0.224,0.5-0.5,0.5
			s-0.5-0.224-0.5-0.5v-7h1V12.75z M10,3c0-0.138,0.112-0.25,0.25-0.25h2.5C12.888,2.75,13,2.862,13,3c0,0.069,0,0.568,0,0.8
			l-1.5-0.05L10,3.8C10,3.568,10,3.069,10,3z"/>
	</g>
	<g>
		<g>
			<path id="trash_2_" fill="#231F20" d="M17.5,5c0-1.302-0.447-1.75-1-1.75L14,3.1V2c0-0.552-0.447-1-1-1h-3C9.448,1,9,1.448,9,2
				v1.1L6.5,3.25c-0.552,0-1,0.448-1,1.75h1.014L7,13c0,0.553,0.448,1,1,1h7c0.553,0,1-0.447,1-1l0.486-8H17.5z M9,12
				c0,0.276-0.224,0.5-0.5,0.5S8,12.276,8,12V5h1V12z M11,12c0,0.276-0.224,0.5-0.5,0.5S10,12.276,10,12V5h1V12z M13,12
				c0,0.276-0.224,0.5-0.5,0.5S12,12.276,12,12V5h1V12z M15,12c0,0.276-0.224,0.5-0.5,0.5S14,12.276,14,12V5h1V12z M10,2.25
				C10,2.112,10.112,2,10.25,2h2.5C12.888,2,13,2.112,13,2.25c0,0.069,0,0.568,0,0.8L11.5,3L10,3.05C10,2.818,10,2.319,10,2.25z"/>
		</g>
		<g>
			<linearGradient id="trash_5_" gradientUnits="userSpaceOnUse" x1="11.5005" y1="14" x2="11.5005" y2="1.0005">
				<stop  offset="0" style="stop-color:#7A7B7B"/>
				<stop  offset="1" style="stop-color:#404040"/>
			</linearGradient>
			<path id="trash_1_" fill="url(#trash_5_)" d="M17.5,5c0-1.302-0.447-1.75-1-1.75L14,3.1V2c0-0.552-0.447-1-1-1h-3
				C9.448,1,9,1.448,9,2v1.1L6.5,3.25c-0.552,0-1,0.448-1,1.75h1.014L7,13c0,0.553,0.448,1,1,1h7c0.553,0,1-0.447,1-1l0.486-8H17.5z
				 M9,12c0,0.276-0.224,0.5-0.5,0.5S8,12.276,8,12V5h1V12z M11,12c0,0.276-0.224,0.5-0.5,0.5S10,12.276,10,12V5h1V12z M13,12
				c0,0.276-0.224,0.5-0.5,0.5S12,12.276,12,12V5h1V12z M15,12c0,0.276-0.224,0.5-0.5,0.5S14,12.276,14,12V5h1V12z M10,2.25
				C10,2.112,10.112,2,10.25,2h2.5C12.888,2,13,2.112,13,2.25c0,0.069,0,0.568,0,0.8L11.5,3L10,3.05C10,2.818,10,2.319,10,2.25z"/>
		</g>
	</g>
</g>
</svg>
