<?xml version="1.0" encoding="utf-8"?>
<!DOCTYPE svg PUBLIC "-//W3C//DTD SVG 1.1 Basic//EN" "http://www.w3.org/Graphics/SVG/1.1/DTD/svg11-basic.dtd">
<svg version="1.1" baseProfile="basic" id="Button_Icons"
	 xmlns="http://www.w3.org/2000/svg" xmlns:xlink="http://www.w3.org/1999/xlink" x="0px" y="0px" width="24px" height="15px"
	 viewBox="0 0 24 15" xml:space="preserve">
<g>
	<g>
		<path fill="#FFFFFF" d="M19,8.25c0,3.59-2.91,6.5-6.5,6.5c-1.795,0-3.42-0.728-4.596-1.904l1.237-1.237
			C10.001,12.469,11.188,13,12.5,13c2.623,0,4.75-2.127,4.75-4.75c0-2.624-2.127-4.75-4.75-4.75c-2.452,0-4.447,1.865-4.7,4.25H10
			l-3,4l-3-4h2.025c0.256-3.355,3.054-6,6.475-6C16.09,1.75,19,4.66,19,8.25z M12,8.604l2.147,2.146l0.707-0.707L13,8.189V4.75h-1
			V8.604z"/>
	</g>
	<g>
		<linearGradient id="SVGID_1_" gradientUnits="userSpaceOnUse" x1="11.5005" y1="14" x2="11.5005" y2="1.0005">
			<stop  offset="0" style="stop-color:#7A7B7B"/>
			<stop  offset="1" style="stop-color:#404040"/>
		</linearGradient>
		<path fill="url(#SVGID_1_)" d="M19,7.5c0,3.59-2.91,6.5-6.5,6.5c-1.795,0-3.42-0.728-4.596-1.904l1.237-1.237
			c0.86,0.86,2.047,1.392,3.359,1.392c2.623,0,4.75-2.127,4.75-4.75c0-2.624-2.127-4.75-4.75-4.75c-2.452,0-4.447,1.865-4.7,4.25H10
			l-3,4L4,7h2.025C6.281,3.645,9.079,1,12.5,1C16.09,1,19,3.91,19,7.5z M12,7.854L14.147,10l0.707-0.707L13,7.439V4h-1V7.854z"/>
	</g>
</g>
</svg>
